<?xml version="1.0" standalone="no"?>
<!DOCTYPE svg PUBLIC "-//W3C//DTD SVG 1.1//EN" "http://www.w3.org/Graphics/SVG/1.1/DTD/svg11.dtd" >
<svg xmlns="http://www.w3.org/2000/svg">
<metadata></metadata>
<defs>
<font id="orkneybold" horiz-adv-x="1585" >
<font-face units-per-em="2048" ascent="1536" descent="-512" />
<missing-glyph horiz-adv-x="501" />
<glyph unicode="&#xfb01;" horiz-adv-x="1290" d="M49 801v223h172v74q0 205 148.5 331.5t386.5 126.5q105 0 216 -22.5t191 -58.5v-269q-85 48 -185 77.5t-187 29.5q-122 0 -197.5 -64.5t-75.5 -169.5v-55h641v-1024h-299v801h-342v-801h-297v801h-172z" />
<glyph unicode="&#xfb02;" horiz-adv-x="1525" d="M49 801v223h172v74q0 205 148 331.5t385 126.5q98 0 211 -20h249v-90h3v-277h-3l3 -813q0 -62 27.5 -93.5t76.5 -31.5q60 0 92 37l143 -213q-84 -75 -233 -75q-201 0 -303 101t-102 277v940q-64 15 -127 15q-122 0 -197.5 -64.5t-75.5 -169.5v-55h246v-223h-246v-801 h-297v801h-172z" />
<glyph horiz-adv-x="0" />
<glyph horiz-adv-x="682" />
<glyph unicode=" "  horiz-adv-x="501" />
<glyph unicode="&#x09;" horiz-adv-x="501" />
<glyph unicode="&#xa0;" horiz-adv-x="501" />
<glyph unicode="!" horiz-adv-x="638" d="M152 147q0 70 49 120t118 50t118.5 -50t49.5 -120q0 -69 -49.5 -118t-118.5 -49t-118 49t-49 118zM170 1536h297l-37 -1020h-223z" />
<glyph unicode="&#x22;" horiz-adv-x="1007" d="M152 1536h280l-37 -590h-207zM578 1536h278l-35 -590h-207z" />
<glyph unicode="#" horiz-adv-x="1687" d="M115 338l28 211h289l60 393h-293l34 209h285l49 342h209l-47 -342h344l47 342h211l-49 -342h293l-35 -209h-287l-55 -393h287l-29 -211h-287l-51 -338h-207l47 338h-348l-45 -338h-209l47 338h-288zM643 549h344l57 393h-346z" />
<glyph unicode="$" horiz-adv-x="1349" d="M117 309l213 131q47 -89 139.5 -143.5t208.5 -54.5q121 0 199.5 56t78.5 148q0 50 -27 88.5t-72.5 64t-104.5 46.5t-124 40.5t-130 42t-124 55t-104.5 75t-72.5 107t-27 145.5q0 166 101.5 274.5t256.5 141.5v178h260v-180q197 -50 322 -178l-172 -148 q-52 54 -121.5 84.5t-144.5 30.5q-102 0 -171 -51.5t-69 -135.5q0 -49 27 -86.5t72.5 -62.5t104.5 -46t124.5 -41t130.5 -42.5t124 -56t104.5 -76t72.5 -107t27 -145.5q0 -95 -36.5 -175.5t-98 -135.5t-137 -91.5t-159.5 -52.5v-174h-260v178q-134 32 -243.5 112t-167.5 185 z" />
<glyph unicode="%" horiz-adv-x="1650" d="M74 1188q0 154 94.5 261t230.5 107q135 0 229.5 -107t94.5 -261q0 -152 -94.5 -259.5t-229.5 -107.5q-136 0 -230.5 107t-94.5 260zM154 0l1034 1536h307l-1034 -1536h-307zM299 1188q0 -59 30 -101.5t70 -42.5q39 0 70 42.5t31 101.5q0 60 -31 102.5t-70 42.5 q-40 0 -70 -42t-30 -103zM928 348q0 153 94.5 261t230.5 108q135 0 229.5 -108t94.5 -261q0 -152 -94.5 -260t-229.5 -108q-136 0 -230.5 107.5t-94.5 260.5zM1151 348q0 -60 29.5 -101.5t70.5 -41.5t71 41.5t30 101.5t-30 102t-71 42q-40 0 -70 -41.5t-30 -102.5z" />
<glyph unicode="&#x26;" horiz-adv-x="1433" d="M175.5 445.5q0.5 193.5 135.5 328.5l41 39l-16 16q-58 58 -90.5 137.5t-32.5 163.5q0 174 125.5 298t300.5 124t300.5 -124t125.5 -298h-264q0 66 -48 114t-114 48q-68 0 -116 -48.5t-48 -117.5q0 -63 49 -112l490 -488l182 181l186 -185l-182 -182l184 -182l-186 -189 l-186 185l-39 -39q-137 -136 -332 -135.5t-330 135.5q-136 137 -135.5 330.5zM438 443.5q0 -82.5 60 -142.5q63 -60 145.5 -60t144.5 60l37 39l-288 287l-39 -39q-60 -62 -60 -144.5z" />
<glyph unicode="'" horiz-adv-x="581" d="M152 1536h280l-37 -590h-207z" />
<glyph unicode="(" horiz-adv-x="829" d="M111 508q0 247 31 451.5t86 350t132.5 245.5t169.5 148.5t197 49.5v-213q-157 -5 -256.5 -270t-99.5 -762q0 -494 99.5 -756.5t256.5 -267.5v-213q-105 1 -197 49t-169.5 147t-132.5 243t-86 347.5t-31 450.5z" />
<glyph unicode=")" horiz-adv-x="829" d="M102 -516q158 5 257.5 267.5t99.5 756.5q0 498 -99.5 762.5t-257.5 269.5v213q105 -1 197.5 -49.5t170 -148.5t133.5 -245.5t87 -350t31 -451.5t-31 -450.5t-87 -347.5t-133.5 -243t-170 -147t-197.5 -49v213z" />
<glyph unicode="*" horiz-adv-x="704" d="M70 1194v147l196 -24l-119 158l127 75l78 -184l80 184l127 -75l-121 -158l199 24v-147l-199 25l121 -158l-127 -76l-80 184l-78 -184l-127 76l119 158z" />
<glyph unicode="+" horiz-adv-x="1570" d="M152 522v226h522v522h225v-522h522v-226h-522v-522h-225v522h-522z" />
<glyph unicode="," horiz-adv-x="479" d="M63 150q0 70 48.5 118.5t119.5 48.5q91 0 139 -70.5t48 -178.5q0 -74 -22.5 -148t-62.5 -136t-103.5 -101t-137.5 -39v131q62 0 101.5 48t48.5 103q7 56 -13 56q-69 0 -117.5 49.5t-48.5 118.5z" />
<glyph unicode="-" horiz-adv-x="1017" d="M152 434v199h716v-199h-716z" />
<glyph unicode="." horiz-adv-x="460" d="M61 147q0 69 50 119.5t118 50.5q69 0 119.5 -50.5t50.5 -119.5q0 -68 -50.5 -117.5t-119.5 -49.5q-68 0 -118 50t-50 117z" />
<glyph unicode="/" horiz-adv-x="1255" d="M-72 -512l1092 2048h278l-1089 -2048h-281z" />
<glyph unicode="0" horiz-adv-x="1361" d="M111 768q0 230 72 409.5t202 279t297 99.5q165 0 295 -99.5t202 -279t72 -409.5t-72 -409.5t-202 -279t-295 -99.5q-167 0 -297 99.5t-202 279t-72 409.5zM410 768q0 -232 76 -379t196 -147q119 0 194.5 147t75.5 379q0 233 -75.5 380.5t-194.5 147.5q-120 0 -196 -147.5 t-76 -380.5z" />
<glyph unicode="1" horiz-adv-x="882" d="M51 952v328l338 256h281v-1536h-299v1198z" />
<glyph unicode="2" horiz-adv-x="1167" d="M92 0v219q252 270 378.5 409.5t201 237.5t89.5 138t15 92q0 102 -57.5 150t-138.5 50q-89 0 -145.5 -59.5t-47.5 -157.5l-287 2q-11 137 55.5 248t183.5 170.5t255 59.5q131 0 237.5 -55t168.5 -154.5t63 -225.5q0 -46 -4 -84t-20 -82t-32 -78t-56 -89t-74 -97 t-104.5 -119.5t-129 -139.5t-164.5 -173h617v-262h-1004z" />
<glyph unicode="3" horiz-adv-x="1212" d="M90 426l293 4q0 -72 62 -122t151 -50q92 0 152.5 64t60.5 161q0 95 -60.5 158.5t-152.5 63.5h-121l-2 235h102h3q75 0 124.5 52t49.5 130q0 69 -49.5 114.5t-124.5 45.5q-66 0 -112 -39t-46 -96l-287 6q0 169 129 286t316 117q186 0 314 -117t128 -286q0 -87 -42.5 -160 t-117.5 -121q112 -62 177 -163.5t65 -227.5q0 -138 -66.5 -253.5t-183 -181.5t-256.5 -66q-212 0 -359 130t-147 316z" />
<glyph unicode="4" horiz-adv-x="1280" d="M31 324v188l651 1024h375v-950h135v-262h-135v-324h-297v324h-729zM371 586h389v657z" />
<glyph unicode="5" horiz-adv-x="1261" d="M127 774l74 758h870v-260h-639l-35 -330q51 43 132 68.5t167 25.5q207 0 341 -145.5t134 -368.5q0 -238 -150.5 -390t-383.5 -152q-145 0 -283.5 60t-222.5 157l188 206q49 -69 130.5 -110t166.5 -41q113 0 184.5 72.5t71.5 185.5q0 114 -73 190t-183 76 q-67 0 -135.5 -30t-113.5 -80z" />
<glyph unicode="6" horiz-adv-x="1312" d="M90 512q0 170 125 344l498 680h340l-373 -483q10 0 29 -1t28 -1q136 -15 247.5 -90t175.5 -191.5t65 -249.5q0 -148 -76.5 -272t-205.5 -195t-281 -73q-116 -1 -221 40t-182 112t-122.5 170t-46.5 210zM385 512q0 -120 78 -201t199 -78q120 1 197 84t75 203 q-3 120 -82 200t-199 79t-195 -84t-73 -203z" />
<glyph unicode="7" horiz-adv-x="1155" d="M72 1276v260h1052v-217l-708 -1319h-324l709 1276h-729z" />
<glyph unicode="8" horiz-adv-x="1200" d="M66 463q0 126 61 228t168 163q-137 115 -137 297q0 173 125.5 289t316.5 116t316.5 -116t125.5 -289q0 -183 -137 -295q108 -63 170 -165.5t62 -227.5q0 -206 -153 -344.5t-384 -138.5q-230 0 -382 138.5t-152 344.5zM365 485q0 -102 68 -172.5t167 -70.5 q101 0 168.5 70.5t67.5 172.5q0 101 -67.5 167.5t-168.5 66.5q-100 0 -167.5 -66.5t-67.5 -167.5zM408 1128q0 -83 55.5 -138.5t138.5 -55.5q82 0 137.5 55.5t55.5 138.5t-55.5 139t-137.5 56q-83 0 -138.5 -56t-55.5 -139z" />
<glyph unicode="9" horiz-adv-x="1312" d="M90 1016q-1 149 76 273t206.5 194.5t280.5 72.5q116 1 221 -40t182 -111.5t122.5 -170t46.5 -210.5q0 -168 -123 -344l-500 -680h-340l377 485q-23 -2 -61 2q-206 22 -346 174.5t-142 354.5zM381 1018q2 -120 81 -200t200 -79q120 0 196 83t74 204q-3 118 -81.5 199 t-197.5 80q-120 -3 -197.5 -86t-74.5 -201z" />
<glyph unicode=":" horiz-adv-x="638" d="M152 147q0 69 49 119.5t118 50.5t118.5 -50.5t49.5 -119.5q0 -68 -49.5 -117.5t-118.5 -49.5t-118 49.5t-49 117.5zM152 877q0 69 49 118t118 49t118.5 -49t49.5 -118t-49.5 -118.5t-118.5 -49.5t-118 49.5t-49 118.5z" />
<glyph unicode=";" horiz-adv-x="645" d="M152 150q0 70 49 118.5t118 48.5q113 0 159 -114q44 -108 9 -256q-37 -154 -136 -238q-75 -64 -169 -65v131q60 1 102 54.5t43.5 99t-10.5 53.5q-69 0 -117 49.5t-48 118.5zM152 877q0 69 49.5 118t117.5 49q69 0 119.5 -49t50.5 -118t-50.5 -118.5t-119.5 -49.5 q-68 0 -117.5 49.5t-49.5 118.5z" />
<glyph unicode="&#x3c;" horiz-adv-x="1431" d="M152 625v266l1130 567v-246l-903 -454l903 -457v-248z" />
<glyph unicode="=" horiz-adv-x="1406" d="M90 246v188h1229v-188h-1229zM90 653v187h1229v-187h-1229z" />
<glyph unicode="&#x3e;" horiz-adv-x="1431" d="M152 53v248l901 457l-901 454v246l1130 -567v-266z" />
<glyph unicode="?" horiz-adv-x="1179" d="M90 1030q-12 145 49.5 265.5t181 189.5t269.5 69q212 0 356 -135.5t144 -333.5q0 -86 -20 -151t-52.5 -102.5t-71 -64.5t-77.5 -45.5t-71.5 -37t-52.5 -47t-20 -68.5v-110h-268v92q0 86 20.5 146t53 91t72 52t79 37.5t72 38.5t53 64t20.5 105q0 89 -68.5 149t-168.5 60 q-115 0 -183 -76.5t-53 -187.5h-264zM430 147q0 70 49.5 120t118.5 50t118.5 -50t49.5 -120q0 -69 -49.5 -118t-118.5 -49t-118.5 49t-49.5 118z" />
<glyph unicode="@" horiz-adv-x="1214" d="M90 565q0 153 72.5 281.5t198.5 203t276 74.5q181 0 304.5 -108t123.5 -266v-445h-172v45q-36 -31 -86 -49t-96 -18q-105 0 -179.5 75t-74.5 183q0 107 74.5 181.5t177.5 74.5q49 0 99 -20t85 -54v27q0 85 -74 142.5t-182 57.5q-156 0 -265.5 -112t-109.5 -273 q0 -165 120 -279t292 -114h391v-172h-391q-161 0 -295.5 74.5t-211.5 204.5t-77 286zM657 541q0 -49 36 -82t89 -33q36 0 66 16.5t45 44.5v107q-15 27 -45 43t-66 16q-53 0 -89 -31.5t-36 -80.5z" />
<glyph unicode="A" d="M2 0l616 1536h347l616 -1536h-334l-108 291h-695l-108 -291h-334zM539 545h505l-251 678z" />
<glyph unicode="B" horiz-adv-x="1339" d="M123 0v1536h573q196 0 325.5 -115t129.5 -309q0 -220 -172 -319q134 -40 210.5 -134t76.5 -241q0 -129 -60.5 -225t-162 -144.5t-228.5 -48.5h-692zM430 270h340q77 0 131.5 55.5t54.5 131.5t-54.5 131t-131.5 55h-340v-373zM430 893h229q76 0 130.5 56t54.5 132 t-54.5 131.5t-130.5 55.5h-229v-375z" />
<glyph unicode="C" horiz-adv-x="1280" d="M78 768q0 162 55 306.5t152 251t237.5 168.5t304.5 62q199 0 357 -100v-344q-144 150 -357 150q-141 0 -245.5 -66.5t-157.5 -177.5t-53 -250t53 -250.5t157.5 -178.5t245.5 -67q217 0 357 152v-344q-165 -100 -357 -100q-164 0 -304.5 62t-237.5 168.5t-152 251 t-55 306.5z" />
<glyph unicode="D" horiz-adv-x="1458" d="M123 0v1536h491q209 0 385.5 -103t279.5 -279.5t103 -385.5t-103 -385.5t-279.5 -279.5t-385.5 -103h-491zM430 270h182q195 0 329 144.5t134 353.5q0 211 -134 355.5t-329 144.5h-182v-998z" />
<glyph unicode="E" horiz-adv-x="1105" d="M123 0v1536h911v-268h-602v-365h516v-270h-516v-363h602v-270h-911z" />
<glyph unicode="F" horiz-adv-x="1097" d="M123 0v1536h911v-268h-602v-365h516v-270h-516v-633h-309z" />
<glyph unicode="G" horiz-adv-x="1509" d="M109 760q0 176 62.5 326t169.5 252.5t251.5 160t306.5 57.5q285 0 487 -141v-352q-189 209 -456 209q-234 0 -381.5 -137.5t-147.5 -374.5q0 -229 144.5 -365.5t365.5 -136.5q99 0 197 29v321h-293v264h571v-770q-229 -141 -462 -141q-178 0 -329 58t-258 161.5 t-167.5 253t-60.5 326.5z" />
<glyph unicode="H" horiz-adv-x="1523" d="M123 0v1536h309v-631h660v631h309v-1536h-309v633h-660v-633h-309z" />
<glyph unicode="I" horiz-adv-x="555" d="M123 0v1536h309v-1536h-309z" />
<glyph unicode="J" horiz-adv-x="763" d="M74 0v313q67 -24 143 -24q45 0 78 32.5t33 77.5v1137h307v-1167q0 -174 -111.5 -281.5t-285.5 -107.5q-106 0 -164 20z" />
<glyph unicode="K" horiz-adv-x="1437" d="M123 0v1536h309v-600l559 600h395l-636 -670l600 -555v-413l-918 870v-768h-309z" />
<glyph unicode="L" horiz-adv-x="1015" d="M123 0v1536h309v-1266h518v-270h-827z" />
<glyph unicode="M" horiz-adv-x="1916" d="M123 0v1536h334l501 -748l506 748h330v-1536h-307v1102l-531 -807l-524 807v-1102h-309z" />
<glyph unicode="N" horiz-adv-x="1654" d="M123 0v1536h315l787 -1067v1067h307v-1536h-315l-785 1069v-1069h-309z" />
<glyph unicode="O" horiz-adv-x="1652" d="M78 768q0 162 55 306.5t152 251t237.5 168.5t304.5 62q217 0 389.5 -106t266.5 -285.5t94 -396.5t-94 -396.5t-266.5 -285.5t-389.5 -106q-164 0 -304.5 62t-237.5 168.5t-152 251t-55 306.5zM373 768q0 -213 122 -351t332 -138q140 0 243.5 65t155.5 175t52 249 q0 141 -52 251.5t-155.5 175.5t-243.5 65q-210 0 -332 -138.5t-122 -353.5z" />
<glyph unicode="P" horiz-adv-x="1249" d="M123 0v1536h635q191 0 322.5 -133.5t131.5 -323.5t-131 -318t-323 -128h-326v-633h-309zM432 885h297q87 0 145 53t58 139q0 84 -58.5 137.5t-144.5 53.5h-297v-383z" />
<glyph unicode="Q" horiz-adv-x="1644" d="M78 768q0 162 55 306.5t152 251t237.5 168.5t304.5 62q217 0 389.5 -106t266.5 -285.5t94 -396.5q0 -260 -135 -463l24 -24q48 -48 113 -48h39v-233h-86q-141 0 -250 115l-10 8q-192 -143 -445 -143q-164 0 -304.5 62t-237.5 168.5t-152 251t-55 306.5zM373 768 q0 -213 122 -351t332 -138q139 0 240 61l-213 225l170 174l205 -213q49 107 49 242q0 141 -52 251.5t-155.5 175.5t-243.5 65q-210 0 -332 -138.5t-122 -353.5z" />
<glyph unicode="R" horiz-adv-x="1255" d="M123 0v1536h635q190 0 322 -133.5t132 -325.5q0 -150 -88.5 -259.5t-230.5 -145.5l373 -672h-346l-336 651h-152v-651h-309zM432 891h313q79 0 133 54t54 134q0 79 -54.5 134t-132.5 55h-313v-377z" />
<glyph unicode="S" horiz-adv-x="1325" d="M74 264l213 211q66 -101 170 -155t233 -54q111 0 178 40.5t68 125.5q0 30 -11 57t-25.5 47.5t-46 43t-53 35.5t-68 33.5t-69.5 30t-77 30.5q-55 22 -90.5 36.5t-85.5 39.5t-82 47.5t-68 55t-56.5 67.5t-34 80.5t-13.5 97.5q0 126 68 223t185.5 148.5t264.5 51.5 q176 0 321 -60t242 -163l-201 -194q-72 81 -157 120t-197 39q-93 0 -151 -41.5t-58 -111.5q0 -30 16.5 -57.5t39 -46.5t66 -42t76 -36.5t91.5 -36.5q50 -20 75.5 -30.5t74 -32.5t75.5 -37.5t68 -42t64.5 -50t51.5 -57.5t42.5 -69t25 -79t10.5 -92q0 -113 -44.5 -201.5 t-123 -143.5t-180 -83t-221.5 -28q-183 0 -345.5 77.5t-260.5 206.5z" />
<glyph unicode="T" horiz-adv-x="1187" d="M47 1268v268h1094v-268h-393v-1268h-306v1268h-395z" />
<glyph unicode="U" horiz-adv-x="1511" d="M127 496v1040h309v-985q0 -126 93 -213.5t227 -87.5t226.5 87.5t92.5 213.5v985h309v-1040q0 -142 -83 -261t-227.5 -187t-317.5 -68q-130 0 -246.5 40.5t-200.5 109t-133 164t-49 202.5z" />
<glyph unicode="V" d="M2 1536h346l445 -1178l442 1178h346l-616 -1536h-347z" />
<glyph unicode="W" horiz-adv-x="2396" d="M-25 1536h334l498 -1198l242 575l-261 623h306l495 -1200l498 1200h332l-650 -1536h-335l-236 561l-235 -561h-334z" />
<glyph unicode="X" horiz-adv-x="1398" d="M2 0l530 788l-501 748h350l317 -494l320 494h350l-504 -745l531 -791h-353l-344 537l-344 -537h-352z" />
<glyph unicode="Y" horiz-adv-x="1388" d="M2 1536h344l348 -551l353 551h339l-536 -809v-727h-307v721z" />
<glyph unicode="Z" horiz-adv-x="1308" d="M66 0v166l755 1102h-735v268h1149v-166l-758 -1100h762v-270h-1173z" />
<glyph unicode="[" horiz-adv-x="626" d="M133 -743v2510h524v-180h-264v-2150h264v-180h-524z" />
<glyph unicode="\" horiz-adv-x="1255" d="M-72 1536h281l1089 -2048h-278z" />
<glyph unicode="]" horiz-adv-x="626" d="M133 -563h264v2150h-264v180h524v-2510h-524v180z" />
<glyph unicode="^" horiz-adv-x="1460" d="M29 406l569 1130h264l570 -1130h-248l-455 901l-453 -901h-247z" />
<glyph unicode="_" horiz-adv-x="1325" d="M152 0h1024v-197h-1024v197z" />
<glyph unicode="`" horiz-adv-x="47" d="M29 1536h299l170 -342h-224z" />
<glyph unicode="a" horiz-adv-x="1144" d="M92 293q0 72 31.5 133t94.5 104q62 44 156 60q44 8 95 7q57 0 123 -9l145 -23v88q0 83 -58.5 124.5t-143.5 41.5q-149 0 -252 -123l-179 170q86 94 193 136t266 42q211 0 338 -98.5t127 -294.5v-651h-252l-14 100q-154 -120 -338 -120q-148 0 -240 85t-92 228zM403 309 q0 -50 34.5 -80t90.5 -30q106 0 209 92v104l-82 17q-64 10 -109 10h-14q-48 -2 -77 -20.5t-40.5 -41t-11.5 -51.5z" />
<glyph unicode="b" horiz-adv-x="1234" d="M123 0v1536h295v-602q113 110 280 110q137 0 246.5 -70.5t169.5 -192t60 -269.5t-60 -269.5t-169.5 -192t-246.5 -70.5q-179 0 -299 129l-12 -111zM418 406q26 -74 86.5 -119t134.5 -45q106 0 173 77t67 193t-67 194t-173 78q-74 0 -134 -46t-87 -120v-212z" />
<glyph unicode="c" horiz-adv-x="888" d="M63 512q0 234 137.5 383t362.5 149q148 0 254 -53v-276q-33 36 -89 58t-118 22q-115 0 -183.5 -79t-68.5 -204q0 -124 68.5 -203.5t183.5 -79.5q63 0 118.5 22t88.5 58v-272q-94 -57 -254 -57q-225 0 -362.5 149t-137.5 383z" />
<glyph unicode="d" horiz-adv-x="1234" d="M63 512q0 227 134 379.5t342 152.5q165 0 278 -110v602h295v-1536l-264 -2l-17 106q-118 -124 -292 -124q-208 0 -342 152.5t-134 379.5zM358 512q0 -116 66.5 -193t173.5 -77q73 0 132 44t87 117v218q-28 73 -87.5 118t-131.5 45q-107 0 -173.5 -78t-66.5 -194z" />
<glyph unicode="e" horiz-adv-x="1122" d="M63 512q0 153 60.5 273t179.5 191t279 71q222 0 350.5 -144.5t128.5 -388.5q0 -42 -6 -88h-695q26 -217 226 -217q76 0 130 31.5t107 109.5l211 -104q-58 -124 -174 -195t-268 -71q-131 0 -233 40t-166 112t-97 168t-33 212zM367 627h411q-31 186 -200 186 q-170 0 -211 -186z" />
<glyph unicode="f" horiz-adv-x="804" d="M49 801v223h172v164q0 155 113 261.5t276 106.5q100 0 169 -29.5t124 -96.5l-155 -179q-44 62 -115 62q-52 0 -83.5 -41t-31.5 -105v-143h246v-223h-246v-801h-297v801h-172z" />
<glyph unicode="g" horiz-adv-x="1236" d="M63 512q0 227 134 379.5t342 152.5q178 0 295 -126l14 106h266v-1020q0 -233 -144.5 -374.5t-381.5 -141.5q-162 0 -297 61v285q134 -100 299 -100q98 0 162.5 69t64.5 201v86q-113 -110 -278 -110q-208 0 -342 152.5t-134 379.5zM358 512q0 -116 66.5 -193t173.5 -77 q73 0 132 44t87 117v218q-28 73 -87.5 118t-131.5 45q-107 0 -173.5 -78t-66.5 -194z" />
<glyph unicode="h" horiz-adv-x="1239" d="M123 0v1536h299v-616q121 124 297 124q181 0 291 -108t110 -289v-647h-299v610q0 78 -52.5 126t-137.5 48q-88 0 -148.5 -55t-60.5 -135v-594h-299z" />
<glyph unicode="i" horiz-adv-x="591" d="M127 1368q0 69 50 118.5t118 49.5q69 0 119.5 -49.5t50.5 -118.5t-50.5 -118.5t-119.5 -49.5q-68 0 -118 49.5t-50 118.5zM145 0v1024h299v-1024h-299z" />
<glyph unicode="j" horiz-adv-x="565" d="M-86 -250q22 -17 54.5 -28t60.5 -11q54 0 90.5 41.5t36.5 104.5v1167h299v-1188q0 -155 -113 -261.5t-276 -106.5q-43 0 -87.5 9.5t-64.5 22.5v250zM135 1368q0 69 50.5 118.5t119.5 49.5q68 0 118 -49.5t50 -118.5t-50 -118.5t-118 -49.5q-69 0 -119.5 49.5t-50.5 118.5 z" />
<glyph unicode="k" horiz-adv-x="1159" d="M123 0v1536h299v-848l346 336h362l-456 -440l440 -391v-371l-692 635v-457h-299z" />
<glyph unicode="l" horiz-adv-x="743" d="M133 358v1178h299v-1180q0 -61 29 -93t78 -32q58 0 92 37l143 -213q-87 -75 -233 -75q-203 0 -305.5 101t-102.5 277z" />
<glyph unicode="m" horiz-adv-x="1853" d="M123 0v1024h268l15 -109q116 129 290 129q105 0 187.5 -41.5t132.5 -117.5q61 75 148.5 117t189.5 42q173 0 278 -107.5t105 -285.5v-651h-299v614q0 75 -47 122.5t-123 47.5q-79 0 -134 -55t-55 -135v-594h-299v614q0 75 -46.5 122.5t-121.5 47.5q-80 0 -135 -55 t-55 -135v-594h-299z" />
<glyph unicode="n" horiz-adv-x="1239" d="M123 0v1024h268l17 -119q126 139 311 139q181 0 291 -108t110 -289v-647h-299v610q0 78 -52.5 126t-137.5 48q-88 0 -148.5 -55t-60.5 -135v-594h-299z" />
<glyph unicode="o" horiz-adv-x="1193" d="M63 512q0 226 152 379t383 153q230 0 382.5 -153t152.5 -379q0 -147 -68.5 -268.5t-191.5 -192.5t-275 -71t-275.5 71t-191.5 192.5t-68 268.5zM358 512q0 -116 66.5 -193t173.5 -77q105 0 172.5 77.5t67.5 192.5t-67.5 193.5t-172.5 78.5q-107 0 -173.5 -78t-66.5 -194z " />
<glyph unicode="p" horiz-adv-x="1234" d="M123 -512v1536h295v-90q113 110 280 110q137 0 246.5 -70.5t169.5 -192t60 -269.5t-60 -269.5t-169.5 -192t-246.5 -70.5q-167 0 -280 110v-604zM418 406q26 -74 86.5 -119t134.5 -45q106 0 173 77t67 193t-67 194t-173 78q-74 0 -134 -46t-87 -120v-212z" />
<glyph unicode="q" horiz-adv-x="1234" d="M63 512q0 227 134 379.5t342 152.5q165 0 278 -110v90h295v-1536l-295 -2v604q-113 -110 -278 -110q-208 0 -342 152.5t-134 379.5zM358 512q0 -116 66.5 -193t173.5 -77q73 0 132 44t87 117v218q-28 73 -87.5 118t-131.5 45q-107 0 -173.5 -78t-66.5 -194z" />
<glyph unicode="r" horiz-adv-x="907" d="M123 0v1024h268l17 -158q54 84 129.5 131t162.5 47t144 -21t104 -67l-125 -219q-68 47 -159 47q-97 0 -169.5 -75t-72.5 -197v-512h-299z" />
<glyph unicode="s" horiz-adv-x="1019" d="M61 106l132 211q50 -42 139.5 -72.5t165.5 -35.5q14 -1 27 -1q56 0 94 18q47 22 47 63q0 17 -7 31.5t-23.5 26.5t-31.5 21t-45.5 19.5t-49 16t-56.5 16.5q-44 12 -70 20.5t-67 24t-66.5 30t-56 37.5t-47.5 48t-28.5 60t-11.5 75q0 148 118 238.5t311 90.5q107 0 220 -27 t199 -83l-139 -193q-41 31 -108.5 55.5t-126.5 30.5q-21 2 -40 2q-46 -1 -82 -13q-52 -18 -52 -60q0 -11 3.5 -21.5t12 -19.5t17 -16t23.5 -14.5t27 -13t33 -12.5t35 -11.5t39 -12t39 -12.5q55 -17 94 -32t86 -41.5t76.5 -58t49.5 -79t20 -105.5q0 -152 -111 -239.5 t-299 -87.5q-146 0 -277 32t-213 94z" />
<glyph unicode="t" horiz-adv-x="796" d="M43 801v223h123v348h299v-348h256v-223h-256v-445q0 -61 28.5 -93t77.5 -32q59 0 93 37l143 -213q-87 -75 -234 -75q-203 0 -305 101t-102 277v443h-123z" />
<glyph unicode="u" horiz-adv-x="1245" d="M125 395v629h299v-592q0 -80 55.5 -135t136.5 -55q87 0 148 55.5t61 134.5v592h297v-1024h-266l-16 121q-125 -141 -310 -141q-170 0 -287.5 120.5t-117.5 294.5z" />
<glyph unicode="v" horiz-adv-x="1083" d="M-10 1024h319l232 -696l233 696h320l-412 -1024h-283z" />
<glyph unicode="w" horiz-adv-x="1611" d="M16 1024h338l191 -694l137 424l-88 270h270l205 -696l193 696h333l-350 -1024h-315l-123 371l-123 -371h-315z" />
<glyph unicode="x" horiz-adv-x="1179" d="M-20 0l430 512l-430 512h356l254 -301l254 301h356l-432 -514l432 -510h-358l-252 299l-250 -299h-360z" />
<glyph unicode="y" horiz-adv-x="1247" d="M125 395v629h299v-592q0 -80 55.5 -135t136.5 -55q87 0 148 55.5t61 134.5v592h297l2 -1024q0 -234 -151 -375t-404 -141q-184 0 -325 63v285q142 -102 329 -102q111 0 181.5 69.5t70.5 200.5v104q-124 -124 -295 -124q-170 0 -287.5 120.5t-117.5 294.5z" />
<glyph unicode="z" horiz-adv-x="1071" d="M88 0v219l514 561h-512v244h889v-215l-516 -565h520v-244h-895z" />
<glyph unicode="{" horiz-adv-x="688" d="M70 422v176q69 30 98.5 59.5t42 84t12.5 165.5v492q0 134 73 226.5t183 92.5h137v-180h-11q-33 0 -47.5 -0.5t-36 -2.5t-29.5 -7t-19.5 -14t-14.5 -23t-6 -34t-3 -48v-532q0 -129 -26 -217t-89 -150q64 -62 89.5 -149.5t25.5 -217.5v-544q0 -48 12 -70.5t46.5 -32.5 t108.5 -10v-188h-137q-110 0 -183 92.5t-73 226.5v496q0 84 -5 131t-23.5 82.5t-45.5 54.5t-79 41z" />
<glyph unicode="|" horiz-adv-x="577" d="M197 -307v1843h184v-1843h-184z" />
<glyph unicode="}" horiz-adv-x="688" d="M72 -514q106 0 137 22t31 91v544q0 129 26 217t88 150q-62 62 -88 150.5t-26 216.5v532q0 33 -2 54.5t-11.5 36.5t-17.5 22t-31 11t-39.5 4.5t-55.5 0.5h-11v186h139q108 0 182 -93t74 -228v-496q0 -111 12.5 -165.5t42.5 -84t99 -59.5v-176q-69 -29 -99 -59t-42.5 -84.5 t-12.5 -165.5v-496q0 -134 -74 -226.5t-182 -92.5h-139v188z" />
<glyph unicode="~" horiz-adv-x="1112" d="M61 362q-20 159 64.5 263t230.5 104q81 0 142 -36t120 -113q34 -43 65.5 -65.5t76.5 -22.5q70 0 112 58t27 152h150q24 -152 -58 -256t-219 -104q-63 0 -121.5 28.5t-82.5 50t-66 67.5l-10 10q-71 80 -136 80q-74 0 -114.5 -63.5t-28.5 -152.5h-152z" />
<glyph unicode="&#xa1;" horiz-adv-x="638" d="M152 856q0 69 49 118.5t118 49.5t118.5 -49.5t49.5 -118.5q0 -70 -49.5 -119t-118.5 -49t-118 49t-49 119zM170 -512l37 1022h223l37 -1022h-297z" />
<glyph unicode="&#xa2;" horiz-adv-x="980" d="M78 717q0 186 117 327.5t303 186.5v205h172v-187q109 -6 202 -43v-286q-80 69 -225 69q-114 0 -193 -79t-79 -193t79 -192.5t193 -78.5q144 0 225 70v-287q-91 -39 -202 -45v-186h-172v205q-186 45 -303 186.5t-117 327.5z" />
<glyph unicode="&#xa3;" horiz-adv-x="1263" d="M41 649v193h164v202q0 224 140 368t360 144q169 0 308.5 -110.5t174.5 -276.5l-217 -94q-1 70 -39 129.5t-99 93t-128 33.5q-126 0 -201.5 -77.5t-75.5 -209.5v-202h381v-193h-381v-440h778v-209h-1001v649h-164z" />
<glyph unicode="&#xa4;" horiz-adv-x="1286" d="M115 377l108 108q-75 118 -74.5 259t74.5 260l-106 104l157 166l111 -113q118 75 258.5 75.5t259.5 -75.5l109 111l159 -160l-108 -106q75 -120 75 -262t-75 -261l106 -106l-155 -164l-111 111q-119 -74 -261 -74t-259 74l-111 -111zM373.5 742q-0.5 -112 75.5 -189 q82 -80 194.5 -80.5t192.5 80.5q78 78 78 191.5t-78 191.5q-79 78 -192.5 77.5t-192.5 -79.5q-77 -80 -77.5 -192z" />
<glyph unicode="&#xa5;" horiz-adv-x="1396" d="M49 1536h277l372 -586l375 586h275l-502 -760h346v-188h-363v-154h363v-174h-363v-260h-260v260h-360v174h360v154h-360v188h342z" />
<glyph unicode="&#xa6;" horiz-adv-x="577" d="M197 -307v737h184v-737h-184zM197 799v737h184v-737h-184z" />
<glyph unicode="&#xa7;" horiz-adv-x="1277" d="M106 252l183 113q41 -69 140.5 -112.5t234.5 -43.5q128 0 214.5 38.5t86.5 106.5q0 35 -27 61t-73 43.5t-105.5 32t-125.5 29t-131.5 31.5t-125 43t-105.5 59.5t-73 85.5t-27 117q0 110 78 188q-78 75 -78 181q0 104 69 181t173.5 113.5t226.5 36.5q130 0 252 -43 t194 -114l-147 -123q-107 92 -287 92q-109 0 -185.5 -36t-76.5 -95q0 -35 27 -61.5t73 -44t105.5 -32t125.5 -29.5t131.5 -32.5t125 -44t105.5 -61t73 -87.5t27 -120q0 -103 -80 -186q80 -77 80 -189q0 -97 -73.5 -177t-195.5 -124.5t-264 -44.5q-178 0 -328 70t-217 178z M391 864q0 -39 31.5 -67.5t90 -48t120 -33.5t145.5 -34t142 -40q45 39 45 86q0 37 -31.5 64.5t-90.5 46.5t-120.5 33t-145 33.5t-141.5 39.5q-45 -31 -45 -80z" />
<glyph unicode="&#xa8;" horiz-adv-x="47" d="M94 1348q0 69 49.5 118.5t118.5 49.5t118.5 -49.5t49.5 -118.5t-49.5 -118.5t-118.5 -49.5t-118.5 49.5t-49.5 118.5zM541 1348q0 69 50 118.5t118 49.5q69 0 118.5 -49.5t49.5 -118.5t-49.5 -118.5t-118.5 -49.5q-68 0 -118 49.5t-50 118.5z" />
<glyph unicode="&#xa9;" horiz-adv-x="1730" d="M78 768q0 160 62.5 306t168 251.5t251.5 168t306 62.5q128 0 248.5 -40t217.5 -113t170 -170t113 -217t40 -248t-40 -248t-113 -217t-170 -170t-217.5 -113t-248.5 -40q-160 0 -306 62.5t-251.5 168t-168 251.5t-62.5 306zM236 768q0 -130 49.5 -246.5t133.5 -200.5 t200.5 -133t246.5 -49q173 0 318 83t229 228t84 318q0 130 -49.5 247t-133.5 201t-201 133.5t-247 49.5t-246.5 -49.5t-200.5 -133.5t-133.5 -201t-49.5 -247zM516 760q0 157 115.5 265t281.5 108q89 0 162 -33v-180h-8q-63 49 -147 49q-91 0 -153 -56t-62 -153 q0 -95 62.5 -150t152.5 -55q37 0 78.5 11.5t66.5 31.5l10 2v-178q-84 -33 -162 -33q-166 0 -281.5 108t-115.5 263z" />
<glyph unicode="&#xaa;" horiz-adv-x="819" d="M49 1229q0 133 89.5 226t217.5 93q140 0 224 -112v100h143v-614h-143v100q-82 -113 -224 -113q-128 0 -217.5 93.5t-89.5 226.5zM193 1229q0 -80 56.5 -137.5t135.5 -57.5q81 0 138 57.5t57 137.5t-57 137t-138 57q-79 0 -135.5 -57t-56.5 -137z" />
<glyph unicode="&#xab;" horiz-adv-x="1404" d="M193 571l311 377h237l-311 -377l311 -376h-237zM664 571l311 377h237l-311 -377l311 -376h-237z" />
<glyph unicode="&#xac;" horiz-adv-x="1601" d="M152 729v189h1298v-713h-186v524h-1112z" />
<glyph unicode="&#xad;" horiz-adv-x="1208" d="M152 434v199h716v-199h-716z" />
<glyph unicode="&#xae;" horiz-adv-x="1730" d="M78 768q0 160 62.5 306t168 251.5t251.5 168t306 62.5q128 0 248.5 -40t217.5 -113t170 -170t113 -217t40 -248t-40 -248t-113 -217t-170 -170t-217.5 -113t-248.5 -40q-160 0 -306 62.5t-251.5 168t-168 251.5t-62.5 306zM236 768q0 -130 49.5 -246.5t133.5 -200.5 t200.5 -133t246.5 -49q173 0 318 83t229 228t84 318q0 130 -49.5 247t-133.5 201t-201 133.5t-247 49.5t-246.5 -49.5t-200.5 -133.5t-133.5 -201t-49.5 -247zM649 373v790h269q100 0 170.5 -69t70.5 -168q0 -70 -37 -127.5t-98 -87.5l184 -338h-164l-176 315h-75v-315h-144 zM793 831h125q38 0 66 27.5t28 67.5q0 38 -27 65t-67 27h-125v-187z" />
<glyph unicode="&#xaf;" horiz-adv-x="55" d="M29 1196v188h635v-188h-635z" />
<glyph unicode="&#xb0;" horiz-adv-x="931" d="M193 1282q0 116 79.5 195t194.5 79q114 0 194 -79.5t80 -194.5q0 -114 -80 -194t-194 -80q-115 0 -194.5 80t-79.5 194zM334 1282q0 -56 38 -93.5t95 -37.5q55 0 93 37.5t38 93.5q0 57 -37.5 95t-93.5 38q-57 0 -95 -38t-38 -95z" />
<glyph unicode="&#xb1;" horiz-adv-x="1566" d="M70 0v170h1429v-170h-1429zM70 741v189h620v368h189v-368h620v-189h-620v-368h-189v368h-620z" />
<glyph unicode="&#xb2;" horiz-adv-x="659" d="M84 778v105q172 183 238.5 258.5t89 113t22.5 72.5q0 53 -30.5 79t-73.5 26q-48 0 -77.5 -30.5t-25.5 -82.5h-137q-7 104 66 170.5t180 66.5q99 0 165.5 -59.5t67.5 -153.5q1 -38 -8 -70t-23.5 -61.5t-56.5 -79.5t-83 -94t-128 -135h318v-125h-504z" />
<glyph unicode="&#xb3;" horiz-adv-x="702" d="M90 991l139 2q0 -38 33 -65t80 -27t79 33.5t32 83.5q0 51 -31.5 84t-79.5 33h-61v112h51q40 0 65 26.5t25 67.5q0 37 -25 60.5t-65 23.5q-34 0 -58 -21t-24 -50l-137 2q0 85 63.5 142.5t155.5 57.5t155.5 -57.5t63.5 -142.5q0 -91 -82 -144q57 -28 90 -79.5t33 -114.5 q0 -105 -72.5 -177.5t-177.5 -72.5q-106 0 -179 64.5t-73 158.5z" />
<glyph unicode="&#xb4;" horiz-adv-x="47" d="M29 1194l170 342h299l-244 -342h-225z" />
<glyph unicode="&#xb5;" horiz-adv-x="1208" d="M131 -512v1536h297v-592q0 -79 56.5 -134.5t136.5 -55.5q88 0 148 55t60 135v592h299v-1024h-299v115q-122 -135 -297 -135q-99 0 -184 45v-537h-217z" />
<glyph unicode="&#xb6;" horiz-adv-x="1277" d="M172 1194q0 165 97 253.5t268 88.5h186v-1843h-150v1157h-36q-171 0 -268 89.5t-97 254.5zM915 -307v1843h152v-1843h-152z" />
<glyph unicode="&#xb7;" horiz-adv-x="550" d="M152 737q0 51 36 88t86 37t87.5 -37t37.5 -88q0 -52 -37.5 -87.5t-87.5 -35.5t-86 35.5t-36 87.5z" />
<glyph unicode="&#xb8;" horiz-adv-x="47" d="M29 -381l129 45q15 -26 47 -44.5t63 -18.5q36 0 61 26.5t25 63.5q0 57 -49 74.5t-119 -15.5l-106 62l102 188h137l-69 -123q101 19 171.5 -35.5t70.5 -150.5q0 -94 -65 -158.5t-159 -64.5q-76 0 -146 44t-93 107z" />
<glyph unicode="&#xb9;" horiz-adv-x="516" d="M51 1411v125h252v-768h-143v643h-109z" />
<glyph unicode="&#xba;" horiz-adv-x="772" d="M49 1229q0 133 98 226t238 93q141 0 239.5 -93t98.5 -226t-98.5 -226.5t-239.5 -93.5q-140 0 -238 93.5t-98 226.5zM193 1229q0 -80 56.5 -137.5t135.5 -57.5q81 0 138 57.5t57 137.5t-57 137t-138 57q-79 0 -135.5 -57t-56.5 -137z" />
<glyph unicode="&#xbb;" horiz-adv-x="1404" d="M193 195l311 376l-311 377h235l311 -377l-311 -376h-235zM662 195l311 376l-311 377h239l311 -377l-311 -376h-239z" />
<glyph unicode="&#xbf;" horiz-adv-x="1175" d="M88 -47q0 86 20 151t52 102.5t71 65t77.5 46t70.5 37.5t52 47.5t20 68.5v111h268v-93q0 -86 -20.5 -146.5t-53 -92t-72 -52.5t-79.5 -37.5t-72.5 -38.5t-53 -64t-20.5 -105q0 -89 69 -149t169 -60q117 0 184.5 76.5t52.5 189.5h262q12 -146 -49.5 -267t-180.5 -190 t-269 -69q-211 0 -354.5 135.5t-143.5 333.5zM410 891q0 70 49.5 119t118.5 49q71 0 120.5 -49t49.5 -119q0 -69 -50 -118.5t-120 -49.5q-69 0 -118.5 49.5t-49.5 118.5z" />
<glyph unicode="&#xc0;" d="M2 0l616 1536h347l616 -1536h-334l-108 291h-695l-108 -291h-334zM424 2048h299l170 -342h-223zM539 545h505l-251 678z" />
<glyph unicode="&#xc1;" d="M2 0l616 1536h347l616 -1536h-334l-108 291h-695l-108 -291h-334zM539 545h505l-251 678zM684 1706l170 342h299l-244 -342h-225z" />
<glyph unicode="&#xc2;" d="M2 0l616 1536h347l616 -1536h-334l-108 291h-695l-108 -291h-334zM422 1698l215 350h309l219 -350h-227l-145 221l-146 -221h-225zM539 545h505l-251 678z" />
<glyph unicode="&#xc3;" d="M2 0l616 1536h347l616 -1536h-334l-108 291h-695l-108 -291h-334zM455 1690q-30 134 30.5 222.5t171.5 88.5q130 0 209 -119q20 -39 56 -39q37 0 47.5 38.5t-11.5 100.5h175q31 -132 -28.5 -220.5t-176.5 -88.5q-123 0 -207 119q-23 39 -55 39q-36 0 -47 -39.5t10 -101.5 h-174zM539 545h505l-251 678z" />
<glyph unicode="&#xc4;" d="M2 0l616 1536h347l616 -1536h-334l-108 291h-695l-108 -291h-334zM401 1860q0 69 49.5 118.5t118.5 49.5t118.5 -49.5t49.5 -118.5t-49.5 -118.5t-118.5 -49.5t-118.5 49.5t-49.5 118.5zM539 545h505l-251 678zM848 1860q0 69 50 118.5t118 49.5q69 0 118.5 -49.5 t49.5 -118.5t-49.5 -118.5t-118.5 -49.5q-68 0 -118 49.5t-50 118.5z" />
<glyph unicode="&#xc5;" d="M2 0l604 1507q-53 66 -53 152q0 97 71 167t171 70q98 0 167.5 -70t69.5 -167q0 -90 -55 -154l604 -1505h-334l-108 291h-695l-108 -291h-334zM539 545h505l-251 678zM678 1659q0 -53 33.5 -86t83.5 -33t83 33t33 86q0 48 -33.5 83.5t-82.5 35.5t-83 -35.5t-34 -83.5z" />
<glyph unicode="&#xc6;" horiz-adv-x="1916" d="M2 0l616 1536h1227v-260h-608v-391h522v-232h-522v-391h608v-262h-907v319h-479l-111 -319h-346zM557 553h383v723h-109z" />
<glyph unicode="&#xc7;" horiz-adv-x="1280" d="M78 768q0 162 55 306.5t152 251t237.5 168.5t304.5 62q199 0 357 -100v-344q-144 150 -357 150q-141 0 -245.5 -66.5t-157.5 -177.5t-53 -250t53 -250.5t157.5 -178.5t245.5 -67q217 0 357 152v-344q-132 -82 -297 -98l-60 -105q101 19 171.5 -35.5t70.5 -150.5 q0 -94 -64.5 -158.5t-158.5 -64.5q-77 0 -147 44t-93 107l129 45q15 -26 47.5 -44.5t63.5 -18.5q36 0 61 26.5t25 63.5q0 57 -49 74.5t-119 -15.5l-107 62l93 172q-148 14 -274.5 80.5t-213 170.5t-135.5 242t-49 291z" />
<glyph unicode="&#xc8;" horiz-adv-x="1105" d="M123 0v1536h911v-268h-602v-365h516v-270h-516v-363h602v-270h-911zM209 2048h299l170 -342h-223z" />
<glyph unicode="&#xc9;" horiz-adv-x="1105" d="M123 0v1536h911v-268h-602v-365h516v-270h-516v-363h602v-270h-911zM469 1706l170 342h299l-244 -342h-225z" />
<glyph unicode="&#xca;" horiz-adv-x="1105" d="M123 0v1536h911v-268h-602v-365h516v-270h-516v-363h602v-270h-911zM207 1698l215 350h309l219 -350h-227l-145 221l-146 -221h-225z" />
<glyph unicode="&#xcb;" horiz-adv-x="1105" d="M123 0v1536h911v-268h-602v-365h516v-270h-516v-363h602v-270h-911zM186 1860q0 69 49.5 118.5t118.5 49.5t118.5 -49.5t49.5 -118.5t-49.5 -118.5t-118.5 -49.5t-118.5 49.5t-49.5 118.5zM633 1860q0 69 50 118.5t118 49.5q69 0 118.5 -49.5t49.5 -118.5t-49.5 -118.5 t-118.5 -49.5q-68 0 -118 49.5t-50 118.5z" />
<glyph unicode="&#xcc;" horiz-adv-x="555" d="M-96 2048h301l170 -342h-223zM123 0v1536h309v-1536h-309z" />
<glyph unicode="&#xcd;" horiz-adv-x="555" d="M123 0v1536h309v-1536h-309zM166 1706l170 342h299l-244 -342h-225z" />
<glyph unicode="&#xce;" horiz-adv-x="555" d="M-98 1698l217 350h309l219 -350h-227l-146 221l-145 -221h-227zM123 0v1536h309v-1536h-309z" />
<glyph unicode="&#xcf;" horiz-adv-x="555" d="M-119 1860q0 69 50.5 118.5t119.5 49.5t118.5 -49.5t49.5 -118.5t-49.5 -118.5t-118.5 -49.5t-119.5 49.5t-50.5 118.5zM123 0v1536h309v-1536h-309zM330 1860q0 69 50 118.5t118 49.5q69 0 118.5 -49.5t49.5 -118.5t-49.5 -118.5t-118.5 -49.5q-68 0 -118 49.5 t-50 118.5z" />
<glyph unicode="&#xd0;" horiz-adv-x="1458" d="M-27 684v168h150v684h491q209 0 385.5 -103t279.5 -279.5t103 -385.5t-103 -385.5t-279.5 -279.5t-385.5 -103h-491v684h-150zM430 270h182q195 0 329 144.5t134 353.5q0 211 -134 355.5t-329 144.5h-182v-416h240v-168h-240v-414z" />
<glyph unicode="&#xd1;" horiz-adv-x="1654" d="M123 0v1536h315l787 -1067v1067h307v-1536h-315l-785 1069v-1069h-309zM494 1690q-30 134 30.5 222.5t171.5 88.5q130 0 209 -119q20 -39 56 -39q37 0 47.5 38.5t-11.5 100.5h174q31 -132 -28 -220.5t-176 -88.5q-123 0 -207 119q-23 39 -55 39q-36 0 -47 -39.5 t10 -101.5h-174z" />
<glyph unicode="&#xd2;" horiz-adv-x="1652" d="M78 768q0 162 55 306.5t152 251t237.5 168.5t304.5 62q217 0 389.5 -106t266.5 -285.5t94 -396.5t-94 -396.5t-266.5 -285.5t-389.5 -106q-164 0 -304.5 62t-237.5 168.5t-152 251t-55 306.5zM373 768q0 -213 122 -351t332 -138q140 0 243.5 65t155.5 175t52 249 q0 141 -52 251.5t-155.5 175.5t-243.5 65q-210 0 -332 -138.5t-122 -353.5zM457 2048h299l170 -342h-224z" />
<glyph unicode="&#xd3;" horiz-adv-x="1652" d="M78 768q0 162 55 306.5t152 251t237.5 168.5t304.5 62q217 0 389.5 -106t266.5 -285.5t94 -396.5t-94 -396.5t-266.5 -285.5t-389.5 -106q-164 0 -304.5 62t-237.5 168.5t-152 251t-55 306.5zM373 768q0 -213 122 -351t332 -138q140 0 243.5 65t155.5 175t52 249 q0 141 -52 251.5t-155.5 175.5t-243.5 65q-210 0 -332 -138.5t-122 -353.5zM717 1706l170 342h299l-244 -342h-225z" />
<glyph unicode="&#xd4;" horiz-adv-x="1652" d="M78 768q0 162 55 306.5t152 251t237.5 168.5t304.5 62q217 0 389.5 -106t266.5 -285.5t94 -396.5t-94 -396.5t-266.5 -285.5t-389.5 -106q-164 0 -304.5 62t-237.5 168.5t-152 251t-55 306.5zM373 768q0 -213 122 -351t332 -138q140 0 243.5 65t155.5 175t52 249 q0 141 -52 251.5t-155.5 175.5t-243.5 65q-210 0 -332 -138.5t-122 -353.5zM457 1698l215 350h309l219 -350h-227l-146 221l-145 -221h-225z" />
<glyph unicode="&#xd5;" horiz-adv-x="1652" d="M78 768q0 162 55 306.5t152 251t237.5 168.5t304.5 62q217 0 389.5 -106t266.5 -285.5t94 -396.5t-94 -396.5t-266.5 -285.5t-389.5 -106q-164 0 -304.5 62t-237.5 168.5t-152 251t-55 306.5zM373 768q0 -213 122 -351t332 -138q140 0 243.5 65t155.5 175t52 249 q0 141 -52 251.5t-155.5 175.5t-243.5 65q-210 0 -332 -138.5t-122 -353.5zM487 1690q-30 134 31 222.5t172 88.5q130 0 209 -119q20 -39 55 -39q37 0 47.5 38.5t-10.5 100.5h174q31 -132 -28 -220.5t-176 -88.5q-123 0 -207 119q-23 39 -56 39q-36 0 -46.5 -39.5 t10.5 -101.5h-175z" />
<glyph unicode="&#xd6;" horiz-adv-x="1652" d="M78 768q0 162 55 306.5t152 251t237.5 168.5t304.5 62q217 0 389.5 -106t266.5 -285.5t94 -396.5t-94 -396.5t-266.5 -285.5t-389.5 -106q-164 0 -304.5 62t-237.5 168.5t-152 251t-55 306.5zM373 768q0 -213 122 -351t332 -138q140 0 243.5 65t155.5 175t52 249 q0 141 -52 251.5t-155.5 175.5t-243.5 65q-210 0 -332 -138.5t-122 -353.5zM436 1860q0 69 49.5 118.5t118.5 49.5t118.5 -49.5t49.5 -118.5t-49.5 -118.5t-118.5 -49.5t-118.5 49.5t-49.5 118.5zM883 1860q0 69 50 118.5t118 49.5q69 0 118.5 -49.5t49.5 -118.5 t-49.5 -118.5t-118.5 -49.5q-68 0 -118 49.5t-50 118.5z" />
<glyph unicode="&#xd7;" horiz-adv-x="1499" d="M250 266l368 369l-368 371l158 157l370 -370l371 370l158 -157l-371 -371l371 -369l-158 -160l-371 371l-370 -371z" />
<glyph unicode="&#xd8;" horiz-adv-x="1652" d="M78 768q0 162 55 306.5t152 251t237.5 168.5t304.5 62q200 0 369 -94l92 140h182l-151 -228q123 -110 190.5 -267.5t67.5 -338.5q0 -217 -94 -396.5t-266.5 -285.5t-389.5 -106q-207 0 -370 94l-92 -142h-183l152 230q-122 108 -189 266t-67 340zM373 768 q0 -220 127 -356l532 802q-94 46 -205 46q-210 0 -332 -138.5t-122 -353.5zM623 322q85 -43 204 -43q140 0 243.5 65t155.5 175t52 249q0 221 -123 356z" />
<glyph unicode="&#xd9;" horiz-adv-x="1511" d="M127 496v1040h309v-985q0 -126 93 -213.5t227 -87.5t226.5 87.5t92.5 213.5v985h309v-1040q0 -142 -83 -261t-227.5 -187t-317.5 -68q-130 0 -246.5 40.5t-200.5 109t-133 164t-49 202.5zM385 2048h299l170 -342h-223z" />
<glyph unicode="&#xda;" horiz-adv-x="1511" d="M127 496v1040h309v-985q0 -126 93 -213.5t227 -87.5t226.5 87.5t92.5 213.5v985h309v-1040q0 -142 -83 -261t-227.5 -187t-317.5 -68q-130 0 -246.5 40.5t-200.5 109t-133 164t-49 202.5zM645 1706l170 342h299l-244 -342h-225z" />
<glyph unicode="&#xdb;" horiz-adv-x="1511" d="M127 496v1040h309v-985q0 -126 93 -213.5t227 -87.5t226.5 87.5t92.5 213.5v985h309v-1040q0 -142 -83 -261t-227.5 -187t-317.5 -68q-130 0 -246.5 40.5t-200.5 109t-133 164t-49 202.5zM385 1698l215 350h309l219 -350h-227l-145 221l-146 -221h-225z" />
<glyph unicode="&#xdc;" horiz-adv-x="1511" d="M127 496v1040h309v-985q0 -126 93 -213.5t227 -87.5t226.5 87.5t92.5 213.5v985h309v-1040q0 -142 -83 -261t-227.5 -187t-317.5 -68q-130 0 -246.5 40.5t-200.5 109t-133 164t-49 202.5zM365 1860q0 69 49 118.5t118 49.5t118.5 -49.5t49.5 -118.5t-49.5 -118.5 t-118.5 -49.5t-118 49.5t-49 118.5zM811 1860q0 69 50 118.5t118 49.5q69 0 118.5 -49.5t49.5 -118.5t-49.5 -118.5t-118.5 -49.5q-68 0 -118 49.5t-50 118.5z" />
<glyph unicode="&#xdd;" horiz-adv-x="1388" d="M2 1536h344l348 -551l353 551h339l-536 -809v-727h-307v721zM588 1706l170 342h299l-244 -342h-225z" />
<glyph unicode="&#xde;" horiz-adv-x="1234" d="M123 0v1315v221h299v-221h332q189 0 319.5 -133.5t130.5 -327.5q0 -186 -130.5 -314t-319.5 -128h-332v-412h-299zM422 674h321q79 0 135 56t56 134t-55.5 132.5t-135.5 54.5h-321v-377z" />
<glyph unicode="&#xdf;" horiz-adv-x="1398" d="M152 0v1059q0 206 155.5 341.5t386.5 135.5q221 0 364.5 -124t143.5 -312q0 -173 -121 -297q97 -64 153 -163.5t56 -217.5q0 -184 -121.5 -313t-298.5 -129q-84 0 -187.5 28t-160.5 72l115 231q33 -24 83.5 -40t92.5 -15q71 3 124.5 55t53.5 129q0 88 -66.5 150.5 t-160.5 62.5h-82v244h33q85 0 146 58.5t61 140.5q0 78 -63.5 129t-160.5 51q-107 0 -178 -61.5t-71 -155.5v-1059h-297z" />
<glyph unicode="&#xe0;" horiz-adv-x="1144" d="M92 293q0 72 31.5 133t94.5 104.5t156.5 59.5t217.5 -2l145 -23v88q0 83 -58.5 124.5t-143.5 41.5q-149 0 -252 -123l-179 170q86 94 193 136t266 42q211 0 338 -98.5t127 -294.5v-651h-252l-14 100q-154 -120 -338 -120q-148 0 -240 85t-92 228zM231 1536h299l170 -342 h-223zM403 309q0 -50 34.5 -80t90.5 -30q106 0 209 92v104l-82 17q-75 12 -123.5 10t-77 -20.5t-40 -41t-11.5 -51.5z" />
<glyph unicode="&#xe1;" horiz-adv-x="1144" d="M92 293q0 72 31.5 133t94.5 104.5t156.5 59.5t217.5 -2l145 -23v88q0 83 -58.5 124.5t-143.5 41.5q-149 0 -252 -123l-179 170q86 94 193 136t266 42q211 0 338 -98.5t127 -294.5v-651h-252l-14 100q-154 -120 -338 -120q-148 0 -240 85t-92 228zM403 309q0 -50 34.5 -80 t90.5 -30q106 0 209 92v104l-82 17q-75 12 -123.5 10t-77 -20.5t-40 -41t-11.5 -51.5zM492 1194l170 342h299l-244 -342h-225z" />
<glyph unicode="&#xe2;" horiz-adv-x="1144" d="M92 293q0 72 31.5 133t94.5 104.5t156.5 59.5t217.5 -2l145 -23v88q0 83 -58.5 124.5t-143.5 41.5q-149 0 -252 -123l-179 170q86 94 193 136t266 42q211 0 338 -98.5t127 -294.5v-651h-252l-14 100q-154 -120 -338 -120q-148 0 -240 85t-92 228zM231 1186l215 350h310 l219 -350h-227l-146 221l-145 -221h-226zM403 309q0 -50 34.5 -80t90.5 -30q106 0 209 92v104l-82 17q-75 12 -123.5 10t-77 -20.5t-40 -41t-11.5 -51.5z" />
<glyph unicode="&#xe3;" horiz-adv-x="1144" d="M92 293q0 72 31.5 133t94.5 104.5t156.5 59.5t217.5 -2l145 -23v88q0 83 -58.5 124.5t-143.5 41.5q-149 0 -252 -123l-179 170q86 94 193 136t266 42q211 0 338 -98.5t127 -294.5v-651h-252l-14 100q-154 -120 -338 -120q-148 0 -240 85t-92 228zM262 1178 q-30 134 31 222.5t172 88.5q130 0 209 -119q20 -39 55 -39q37 0 47.5 38.5t-10.5 100.5h174q31 -132 -28.5 -220.5t-176.5 -88.5q-123 0 -207 119q-23 39 -55 39q-36 0 -47 -39.5t10 -101.5h-174zM403 309q0 -50 34.5 -80t90.5 -30q106 0 209 92v104l-82 17 q-75 12 -123.5 10t-77 -20.5t-40 -41t-11.5 -51.5z" />
<glyph unicode="&#xe4;" horiz-adv-x="1144" d="M92 293q0 72 31.5 133t94.5 104.5t156.5 59.5t217.5 -2l145 -23v88q0 83 -58.5 124.5t-143.5 41.5q-149 0 -252 -123l-179 170q86 94 193 136t266 42q211 0 338 -98.5t127 -294.5v-651h-252l-14 100q-154 -120 -338 -120q-148 0 -240 85t-92 228zM211 1348 q0 69 49.5 118.5t118.5 49.5t118.5 -49.5t49.5 -118.5t-49.5 -118.5t-118.5 -49.5t-118.5 49.5t-49.5 118.5zM403 309q0 -50 34.5 -80t90.5 -30q106 0 209 92v104l-82 17q-75 12 -123.5 10t-77 -20.5t-40 -41t-11.5 -51.5zM657 1348q0 69 50 118.5t118 49.5 q69 0 118.5 -49.5t49.5 -118.5t-49.5 -118.5t-118.5 -49.5q-68 0 -118 49.5t-50 118.5z" />
<glyph unicode="&#xe5;" horiz-adv-x="1144" d="M92 293q0 72 31.5 133t94.5 104.5t156.5 59.5t217.5 -2l145 -23v88q0 83 -58.5 124.5t-143.5 41.5q-149 0 -252 -123l-179 170q86 94 193 136t266 42q211 0 338 -98.5t127 -294.5v-651h-252l-14 100q-154 -120 -338 -120q-148 0 -240 85t-92 228zM360 1372 q0 97 71.5 167.5t170.5 70.5q98 0 168 -70.5t70 -167.5q0 -100 -70 -171t-168 -71q-100 0 -171 71t-71 171zM403 309q0 -50 34.5 -80t90.5 -30q106 0 209 92v104l-82 17q-75 12 -123.5 10t-77 -20.5t-40 -41t-11.5 -51.5zM487 1372q0 -53 32.5 -86t82.5 -33t83.5 33t33.5 86 q0 48 -34 83.5t-83 35.5t-82 -35.5t-33 -83.5z" />
<glyph unicode="&#xe6;" horiz-adv-x="1732" d="M63 293q0 73 31.5 133.5t94 104t155.5 59.5t217 -2l115 -17q6 69 24 127q-18 61 -71 91t-123 30q-141 0 -242 -123l-178 170q84 94 191 136t268 42q221 0 321 -100q131 103 326 103q222 0 350.5 -144.5t128.5 -388.5q0 -42 -6 -88h-694q29 -217 225 -217q76 0 130.5 31.5 t107.5 109.5l211 -104q-58 -124 -174.5 -195t-268.5 -71q-275 0 -416 170q-173 -170 -393 -170q-148 0 -239 85t-91 228zM373 309q0 -50 35.5 -80t91.5 -30q101 0 209 92q-18 53 -27 110l-55 11q-75 12 -124 10t-78 -20.5t-40.5 -41.5t-11.5 -51zM977 627h412 q-31 186 -201 186t-211 -186z" />
<glyph unicode="&#xe7;" horiz-adv-x="888" d="M63 512q0 234 137.5 383t362.5 149q148 0 254 -53v-276q-33 36 -89 58t-118 22q-115 0 -183.5 -79t-68.5 -204q0 -124 68.5 -203.5t183.5 -79.5q63 0 118.5 22t88.5 58v-272q-85 -51 -213 -55l-59 -105q101 19 171 -35.5t70 -150.5q0 -94 -64.5 -158.5t-158.5 -64.5 q-76 0 -146 44t-93 107l129 45q15 -26 47 -44.5t63 -18.5q36 0 61 26.5t25 63.5q0 57 -48.5 74.5t-119.5 -15.5l-106 62l96 176q-187 31 -297.5 173.5t-110.5 350.5z" />
<glyph unicode="&#xe8;" horiz-adv-x="1122" d="M63 512q0 153 60.5 273t179.5 191t279 71q222 0 350.5 -144.5t128.5 -388.5q0 -42 -6 -88h-695q26 -217 226 -217q76 0 130 31.5t107 109.5l211 -104q-58 -124 -174 -195t-268 -71q-131 0 -233 40t-166 112t-97 168t-33 212zM213 1538h299l170 -342h-223zM367 627h411 q-31 186 -200 186q-170 0 -211 -186z" />
<glyph unicode="&#xe9;" horiz-adv-x="1122" d="M63 512q0 153 60.5 273t179.5 191t279 71q222 0 350.5 -144.5t128.5 -388.5q0 -42 -6 -88h-695q26 -217 226 -217q76 0 130 31.5t107 109.5l211 -104q-58 -124 -174 -195t-268 -71q-131 0 -233 40t-166 112t-97 168t-33 212zM367 627h411q-31 186 -200 186 q-170 0 -211 -186zM473 1196l170 342h299l-244 -342h-225z" />
<glyph unicode="&#xea;" horiz-adv-x="1122" d="M63 512q0 153 60.5 273t179.5 191t279 71q222 0 350.5 -144.5t128.5 -388.5q0 -42 -6 -88h-695q26 -217 226 -217q76 0 130 31.5t107 109.5l211 -104q-58 -124 -174 -195t-268 -71q-131 0 -233 40t-166 112t-97 168t-33 212zM211 1188l215 350h309l219 -350h-227 l-145 221l-146 -221h-225zM367 627h411q-31 186 -200 186q-170 0 -211 -186z" />
<glyph unicode="&#xeb;" horiz-adv-x="1122" d="M63 512q0 153 60.5 273t179.5 191t279 71q222 0 350.5 -144.5t128.5 -388.5q0 -42 -6 -88h-695q26 -217 226 -217q76 0 130 31.5t107 109.5l211 -104q-58 -124 -174 -195t-268 -71q-131 0 -233 40t-166 112t-97 168t-33 212zM190 1350q0 69 49.5 118.5t118.5 49.5 t118.5 -49.5t49.5 -118.5t-49.5 -118.5t-118.5 -49.5t-118.5 49.5t-49.5 118.5zM367 627h411q-31 186 -200 186q-170 0 -211 -186zM637 1350q0 69 50 118.5t118 49.5q69 0 118.5 -49.5t49.5 -118.5t-49.5 -118.5t-118.5 -49.5q-68 0 -118 49.5t-50 118.5z" />
<glyph unicode="&#xec;" horiz-adv-x="544" d="M-100 1536h301l170 -342h-224zM123 0v1024h299v-1024h-299z" />
<glyph unicode="&#xed;" horiz-adv-x="544" d="M123 0v1024h299v-1024h-299zM164 1194l170 342h299l-244 -342h-225z" />
<glyph unicode="&#xee;" horiz-adv-x="544" d="M-100 1186l217 350h309l219 -350h-227l-146 221l-145 -221h-227zM123 0v1024h299v-1024h-299z" />
<glyph unicode="&#xef;" horiz-adv-x="544" d="M-121 1348q0 69 50.5 118.5t119.5 49.5t118.5 -49.5t49.5 -118.5t-49.5 -118.5t-118.5 -49.5t-119.5 49.5t-50.5 118.5zM123 0v1024h299v-1024h-299zM328 1348q0 69 50 118.5t118 49.5q69 0 118.5 -49.5t49.5 -118.5t-49.5 -118.5t-118.5 -49.5q-68 0 -118 49.5 t-50 118.5z" />
<glyph unicode="&#xf0;" horiz-adv-x="1249" d="M63 512q0 147 75.5 269.5t206.5 192.5t288 70q89 0 178 -26q-61 131 -162 203l-92 -117l-90 70l82 102q-94 41 -244 49l62 236q179 0 338 -86l86 108l90 -67l-82 -103q186 -139 294.5 -377t108.5 -524q0 -146 -75.5 -268.5t-206.5 -193t-287 -70.5q-157 0 -288 70.5 t-206.5 193t-75.5 268.5zM360 512q0 -114 79.5 -192t193.5 -78q113 0 191.5 78t78.5 192t-78.5 193t-191.5 79q-114 0 -193.5 -79t-79.5 -193z" />
<glyph unicode="&#xf1;" horiz-adv-x="1239" d="M123 0v1024h268l17 -119q126 139 311 139q181 0 291 -108t110 -289v-647h-299v610q0 78 -52.5 126t-137.5 48q-88 0 -148.5 -55t-60.5 -135v-594h-299zM283 1178q-30 134 30.5 222.5t171.5 88.5q130 0 209 -119q20 -39 56 -39q37 0 47.5 38.5t-11.5 100.5h175 q31 -132 -28.5 -220.5t-176.5 -88.5q-123 0 -207 119q-23 39 -55 39q-36 0 -47 -39.5t10 -101.5h-174z" />
<glyph unicode="&#xf2;" horiz-adv-x="1193" d="M63 512q0 226 152 379t383 153q230 0 382.5 -153t152.5 -379q0 -147 -68.5 -268.5t-191.5 -192.5t-275 -71t-275.5 71t-191.5 192.5t-68 268.5zM227 1536h299l170 -342h-223zM358 512q0 -116 66.5 -193t173.5 -77q105 0 172.5 77.5t67.5 192.5t-67.5 193.5t-172.5 78.5 q-107 0 -173.5 -78t-66.5 -194z" />
<glyph unicode="&#xf3;" horiz-adv-x="1193" d="M63 512q0 226 152 379t383 153q230 0 382.5 -153t152.5 -379q0 -147 -68.5 -268.5t-191.5 -192.5t-275 -71t-275.5 71t-191.5 192.5t-68 268.5zM358 512q0 -116 66.5 -193t173.5 -77q105 0 172.5 77.5t67.5 192.5t-67.5 193.5t-172.5 78.5q-107 0 -173.5 -78t-66.5 -194z M487 1194l170 342h299l-243 -342h-226z" />
<glyph unicode="&#xf4;" horiz-adv-x="1193" d="M63 512q0 226 152 379t383 153q230 0 382.5 -153t152.5 -379q0 -147 -68.5 -268.5t-191.5 -192.5t-275 -71t-275.5 71t-191.5 192.5t-68 268.5zM227 1186l215 350h310l219 -350h-228l-145 221l-145 -221h-226zM358 512q0 -116 66.5 -193t173.5 -77q105 0 172.5 77.5 t67.5 192.5t-67.5 193.5t-172.5 78.5q-107 0 -173.5 -78t-66.5 -194z" />
<glyph unicode="&#xf5;" horiz-adv-x="1193" d="M63 512q0 226 152 379t383 153q230 0 382.5 -153t152.5 -379q0 -147 -68.5 -268.5t-191.5 -192.5t-275 -71t-275.5 71t-191.5 192.5t-68 268.5zM258 1178q-30 134 31 222.5t172 88.5q130 0 209 -119q20 -39 55 -39q37 0 47.5 38.5t-10.5 100.5h174q31 -132 -28.5 -220.5 t-176.5 -88.5q-123 0 -207 119q-23 39 -55 39q-36 0 -47 -39.5t10 -101.5h-174zM358 512q0 -116 66.5 -193t173.5 -77q105 0 172.5 77.5t67.5 192.5t-67.5 193.5t-172.5 78.5q-107 0 -173.5 -78t-66.5 -194z" />
<glyph unicode="&#xf6;" horiz-adv-x="1193" d="M63 512q0 226 152 379t383 153q230 0 382.5 -153t152.5 -379q0 -147 -68.5 -268.5t-191.5 -192.5t-275 -71t-275.5 71t-191.5 192.5t-68 268.5zM207 1348q0 69 49.5 118.5t118.5 49.5t118.5 -49.5t49.5 -118.5t-49.5 -118.5t-118.5 -49.5t-118.5 49.5t-49.5 118.5z M358 512q0 -116 66.5 -193t173.5 -77q105 0 172.5 77.5t67.5 192.5t-67.5 193.5t-172.5 78.5q-107 0 -173.5 -78t-66.5 -194zM653 1348q0 69 50 118.5t118 49.5q69 0 118.5 -49.5t49.5 -118.5t-49.5 -118.5t-118.5 -49.5q-68 0 -118 49.5t-50 118.5z" />
<glyph unicode="&#xf7;" horiz-adv-x="1406" d="M90 489v150h1229v-150h-1229zM555 215q0 60 45 105t105 45t104.5 -45t44.5 -105q0 -62 -44 -105.5t-105 -43.5t-105.5 43.5t-44.5 105.5zM555 911q0 60 45 105t105 45t104.5 -45t44.5 -105q0 -62 -44 -105.5t-105 -43.5t-105.5 43.5t-44.5 105.5z" />
<glyph unicode="&#xf8;" horiz-adv-x="1193" d="M63 512q0 226 152 379t383 153q136 0 250 -57l72 107h127l-109 -164q92 -74 143.5 -183t51.5 -235q0 -147 -68.5 -268.5t-191.5 -192.5t-275 -71q-138 0 -252 57l-72 -107h-127l109 164q-92 74 -142.5 183t-50.5 235zM358 512q0 -109 56 -180l284 428q-46 24 -100 24 q-107 0 -173.5 -78t-66.5 -194zM496 264q43 -22 102 -22q105 0 172.5 77.5t67.5 192.5q0 102 -58 180z" />
<glyph unicode="&#xf9;" horiz-adv-x="1245" d="M125 395v629h299v-592q0 -80 55.5 -135t136.5 -55q87 0 148 55.5t61 134.5v592h297v-1024h-266l-16 121q-125 -141 -310 -141q-170 0 -287.5 120.5t-117.5 294.5zM254 1536h299l170 -342h-223z" />
<glyph unicode="&#xfa;" horiz-adv-x="1245" d="M125 395v629h299v-592q0 -80 55.5 -135t136.5 -55q87 0 148 55.5t61 134.5v592h297v-1024h-266l-16 121q-125 -141 -310 -141q-170 0 -287.5 120.5t-117.5 294.5zM514 1194l170 342h299l-244 -342h-225z" />
<glyph unicode="&#xfb;" horiz-adv-x="1245" d="M125 395v629h299v-592q0 -80 55.5 -135t136.5 -55q87 0 148 55.5t61 134.5v592h297v-1024h-266l-16 121q-125 -141 -310 -141q-170 0 -287.5 120.5t-117.5 294.5zM254 1186l215 350h309l219 -350h-227l-145 221l-146 -221h-225z" />
<glyph unicode="&#xfc;" horiz-adv-x="1245" d="M125 395v629h299v-592q0 -80 55.5 -135t136.5 -55q87 0 148 55.5t61 134.5v592h297v-1024h-266l-16 121q-125 -141 -310 -141q-170 0 -287.5 120.5t-117.5 294.5zM233 1348q0 69 49.5 118.5t118.5 49.5t118.5 -49.5t49.5 -118.5t-49.5 -118.5t-118.5 -49.5t-118.5 49.5 t-49.5 118.5zM680 1348q0 69 50 118.5t118 49.5q69 0 118.5 -49.5t49.5 -118.5t-49.5 -118.5t-118.5 -49.5q-68 0 -118 49.5t-50 118.5z" />
<glyph unicode="&#xfd;" horiz-adv-x="1247" d="M125 395v629h299v-592q0 -80 55.5 -135t136.5 -55q87 0 148 55.5t61 134.5v592h297l2 -1024q0 -234 -151 -375t-404 -141q-184 0 -325 63v285q142 -102 329 -102q111 0 181.5 69.5t70.5 200.5v104q-124 -124 -295 -124q-170 0 -287.5 120.5t-117.5 294.5zM514 1194 l170 342h299l-244 -342h-225z" />
<glyph unicode="&#xfe;" horiz-adv-x="1304" d="M123 -512v2048h299v-623q125 131 315 131q140 0 256.5 -70t183 -192.5t66.5 -269.5q0 -223 -146.5 -377.5t-359.5 -154.5q-190 0 -315 131v-623h-299zM422 512q0 -114 78.5 -192t191.5 -78q114 0 192.5 78t78.5 192t-78.5 193t-192.5 79q-113 0 -191.5 -79t-78.5 -193z " />
<glyph unicode="&#xff;" horiz-adv-x="1247" d="M125 395v629h299v-592q0 -80 55.5 -135t136.5 -55q87 0 148 55.5t61 134.5v592h297l2 -1024q0 -234 -151 -375t-404 -141q-184 0 -325 63v285q142 -102 329 -102q111 0 181.5 69.5t70.5 200.5v104q-124 -124 -295 -124q-170 0 -287.5 120.5t-117.5 294.5zM233 1348 q0 69 49.5 118.5t118.5 49.5t118.5 -49.5t49.5 -118.5t-49.5 -118.5t-118.5 -49.5t-118.5 49.5t-49.5 118.5zM680 1348q0 69 50 118.5t118 49.5q69 0 118.5 -49.5t49.5 -118.5t-49.5 -118.5t-118.5 -49.5q-68 0 -118 49.5t-50 118.5z" />
<glyph unicode="&#x152;" horiz-adv-x="2447" d="M111 768q0 214 105.5 395.5t287 287t395.5 105.5q154 0 292.5 -56t246.5 -157v193h858v-260h-608v-377h522v-262h-522v-377h608v-260h-858v193q-108 -101 -246.5 -157t-292.5 -56q-214 0 -395.5 105.5t-287 287t-105.5 395.5zM408 768q0 -135 65 -248t178 -178.5 t248 -65.5t248 65.5t178.5 178.5t65.5 248t-65.5 248t-178.5 178.5t-248 65.5t-248 -65.5t-178 -178.5t-65 -248z" />
<glyph unicode="&#x153;" horiz-adv-x="1898" d="M63 512q0 226 152 379t383 153q112 0 209.5 -39.5t169.5 -111.5q141 154 381 154q222 0 350.5 -144.5t128.5 -388.5q0 -42 -6 -88h-694q29 -217 225 -217q76 0 130 31.5t107 109.5l211 -104q-58 -124 -174 -195t-268 -71q-254 0 -395 147q-150 -147 -375 -147 q-152 0 -275.5 71t-191.5 192.5t-68 268.5zM358 512q0 -116 66.5 -193t173.5 -77q105 0 172.5 77.5t67.5 192.5t-67.5 193.5t-172.5 78.5q-107 0 -173.5 -78t-66.5 -194zM1143 627h411q-31 186 -200 186q-170 0 -211 -186z" />
<glyph unicode="&#x178;" horiz-adv-x="1388" d="M2 1536h344l348 -551l353 551h339l-536 -809v-727h-307v721zM305 1860q0 69 49.5 118.5t118.5 49.5t118.5 -49.5t49.5 -118.5t-49.5 -118.5t-118.5 -49.5t-118.5 49.5t-49.5 118.5zM752 1860q0 69 50 118.5t118 49.5q69 0 118 -49.5t49 -118.5t-49 -118.5t-118 -49.5 q-68 0 -118 49.5t-50 118.5z" />
<glyph unicode="&#x2c6;" horiz-adv-x="47" d="M29 1186l215 350h309l219 -350h-227l-146 221l-145 -221h-225z" />
<glyph unicode="&#x2dc;" horiz-adv-x="49" d="M35 1239q-30 134 31 222.5t172 88.5q130 0 208 -118q20 -39 56 -39q37 0 47.5 38.5t-10.5 100.5h174q31 -132 -28.5 -220.5t-176.5 -88.5q-124 0 -207 118q-23 39 -55 39q-36 0 -47 -40t10 -101h-174z" />
<glyph unicode="&#x2000;" horiz-adv-x="1024" />
<glyph unicode="&#x2001;" horiz-adv-x="2048" />
<glyph unicode="&#x2002;" horiz-adv-x="1024" />
<glyph unicode="&#x2003;" horiz-adv-x="2048" />
<glyph unicode="&#x2004;" horiz-adv-x="682" />
<glyph unicode="&#x2005;" horiz-adv-x="512" />
<glyph unicode="&#x2006;" horiz-adv-x="341" />
<glyph unicode="&#x2007;" horiz-adv-x="341" />
<glyph unicode="&#x2008;" horiz-adv-x="256" />
<glyph unicode="&#x2009;" horiz-adv-x="409" />
<glyph unicode="&#x200a;" horiz-adv-x="113" />
<glyph unicode="&#x2010;" horiz-adv-x="1017" d="M152 434v199h716v-199h-716z" />
<glyph unicode="&#x2011;" horiz-adv-x="1017" d="M152 434v199h716v-199h-716z" />
<glyph unicode="&#x2012;" horiz-adv-x="1017" d="M152 434v199h716v-199h-716z" />
<glyph unicode="&#x2013;" horiz-adv-x="1325" d="M152 434v199h1024v-199h-1024z" />
<glyph unicode="&#x2014;" horiz-adv-x="2045" d="M-2 434v199h2050v-199h-2050z" />
<glyph unicode="&#x2018;" horiz-adv-x="528" d="M43 1251q37 153 136 237q75 63 169 64v-131q-60 -1 -102 -54.5t-43.5 -99t10.5 -53.5q69 0 117.5 -48.5t48.5 -118.5t-49 -118t-119 -48q-114 0 -160 114q-44 109 -8 256z" />
<glyph unicode="&#x2019;" horiz-adv-x="430" d="M53 1386q0 70 48.5 119t119.5 49q89 0 135.5 -70t46.5 -177q0 -73 -22 -147t-61 -136.5t-101.5 -102t-136.5 -40.5v133q63 0 102 54t45 110q3 41 -10 41q-69 0 -117.5 49t-48.5 118z" />
<glyph unicode="&#x201a;" horiz-adv-x="509" d="M63 150q0 70 48.5 118.5t119.5 48.5q91 0 139 -70.5t48 -178.5q0 -74 -22.5 -148t-62.5 -136t-103.5 -101t-137.5 -39v131q62 0 101.5 48t48.5 103q7 56 -13 56q-69 0 -117.5 49.5t-48.5 118.5z" />
<glyph unicode="&#x201c;" horiz-adv-x="974" d="M180 1153q0 74 22 148.5t61.5 137t102 101.5t136.5 39v-131q-63 -1 -102.5 -56t-45.5 -110q-3 -41 11 -41q69 0 117 -49t48 -119t-48.5 -118t-119.5 -48q-89 0 -135.5 69.5t-46.5 176.5zM582 1153q0 59 13.5 118.5t41 115t65 98.5t90 68.5t111.5 25.5v-131 q-63 -1 -102 -55.5t-45 -110.5q-3 -41 10 -41q69 0 117.5 -49t48.5 -119t-48.5 -118t-119.5 -48q-89 0 -135.5 69.5t-46.5 176.5z" />
<glyph unicode="&#x201d;" horiz-adv-x="884" d="M57 1386q0 70 48.5 119t119.5 49q89 0 136 -70t47 -177q0 -73 -22 -147t-61.5 -136.5t-102 -102t-136.5 -40.5v133q63 0 102 54t45 110q3 41 -10 41q-69 0 -117.5 49t-48.5 118zM459 1386q0 70 48.5 119t119.5 49q89 0 135.5 -70t46.5 -177q0 -73 -22 -147t-61.5 -136.5 t-102 -102t-136.5 -40.5v133q63 0 102.5 54t45.5 110q3 41 -10 41q-69 0 -117.5 49t-48.5 118z" />
<glyph unicode="&#x201e;" horiz-adv-x="935" d="M63 150q0 70 48.5 118.5t119.5 48.5q91 0 139 -70.5t48 -178.5q0 -74 -22.5 -148t-62.5 -136t-103.5 -101t-137.5 -39v131q62 0 101.5 48t48.5 103q7 56 -13 56q-69 0 -117.5 49.5t-48.5 118.5zM518 150q0 70 48.5 118.5t119.5 48.5q91 0 138.5 -70.5t47.5 -178.5 q0 -100 -37 -195.5t-113.5 -162t-174.5 -66.5v131q62 0 101 48t48 103q7 56 -12 56q-69 0 -117.5 49.5t-48.5 118.5z" />
<glyph unicode="&#x2022;" horiz-adv-x="1036" d="M193 674q0 132 97.5 229.5t229.5 97.5q131 0 228.5 -97.5t97.5 -229.5q0 -136 -97 -231t-229 -95q-133 0 -230 94.5t-97 231.5z" />
<glyph unicode="&#x2026;" horiz-adv-x="1640" d="M61 147q0 69 50 119.5t118 50.5q69 0 119.5 -50.5t50.5 -119.5q0 -68 -50.5 -117.5t-119.5 -49.5q-68 0 -118 50t-50 117zM569 147q0 69 50 119.5t118 50.5q69 0 119.5 -50.5t50.5 -119.5q0 -68 -50.5 -117.5t-119.5 -49.5q-68 0 -118 50t-50 117zM1063 147 q0 69 50 119.5t118 50.5q69 0 119.5 -50.5t50.5 -119.5q0 -68 -50.5 -117.5t-119.5 -49.5q-68 0 -118 50t-50 117z" />
<glyph unicode="&#x202f;" horiz-adv-x="409" />
<glyph unicode="&#x2039;" horiz-adv-x="727" d="M70 571l311 377h237l-311 -377l311 -376h-237z" />
<glyph unicode="&#x203a;" horiz-adv-x="727" d="M111 195l311 376l-311 377h235l311 -377l-311 -376h-235z" />
<glyph unicode="&#x205f;" horiz-adv-x="512" />
<glyph unicode="&#x20ac;" horiz-adv-x="1384" d="M49 504l94 188h107v131h-201l94 189h107v32q0 225 140.5 368.5t359.5 143.5q111 0 213.5 -49.5t175 -139t94.5 -198.5l-217 -92q0 105 -80.5 180.5t-185.5 75.5q-126 0 -200.5 -78.5t-74.5 -210.5v-32h438l-92 -189h-346v-131h438l-92 -188h-346v-12q0 -132 74.5 -209.5 t200.5 -77.5q105 0 185.5 75.5t80.5 180.5l217 -94q-33 -164 -173.5 -275.5t-309.5 -111.5q-218 0 -359 144t-141 368v12h-201z" />
<glyph unicode="&#x2122;" horiz-adv-x="1533" d="M20 1413v123h512v-123h-186v-594h-141v594h-185zM635 819v717h153l234 -352l240 352h149v-717h-139v496l-248 -367l-248 367v-496h-141z" />
<glyph unicode="&#x25fc;" horiz-adv-x="1024" d="M0 0v1024h1024v-1024h-1024z" />
</font>
</defs>
</svg>
